<svg id="Layer_1" data-name="Layer 1" xmlns="http://www.w3.org/2000/svg" viewBox="0 0 40 40">
  <defs>
    <style>
      .cls-1 {
        fill: #f70;
      }

      .cls-2 {
        fill: #fff;
      }
    </style>
  </defs>
  <title>articulate-logo</title>
  <rect class="cls-1" width="40" height="40"/>
  <g>
    <g>
      <path class="cls-2" d="M28.25,8.06H12a.75.75,0,0,0-.75.75V32.25A.75.75,0,0,0,12,33H15.5V26.36a.8.8,0,0,1,.8-.8h7.11V24.37a1.27,1.27,0,1,1,.68,0v1.19h0a.8.8,0,0,1,.8.8V33h3.34a.75.75,0,0,0,.75-.75V8.81a.75.75,0,0,0-.75-.76ZM24.9,19.33a.8.8,0,0,1-.8.8H18.52l-2.44,2.44a.34.34,0,0,1-.58-.24V13.61a.8.8,0,0,1,.8-.8h7.81a.8.8,0,0,1,.8.8Z"/>
      <circle class="cls-2" cx="23.75" cy="23.14" r="0.59"/>
    </g>
    <g>
      <path class="cls-2" d="M18.16,30.32a.92.92,0,1,1,.92-.92A.92.92,0,0,1,18.16,30.32Z"/>
      <path class="cls-2" d="M22.11,30.32a.92.92,0,1,1,.92-.92A.92.92,0,0,1,22.11,30.32Z"/>
    </g>
  </g>
</svg>
