<svg id="Layer_1" data-name="Layer 1" xmlns="http://www.w3.org/2000/svg" viewBox="0 0 40 40">
  <defs>
    <style>
      .cls-1 {
        fill: #f70;
      }

      .cls-2 {
        fill: #fff;
      }
    </style>
  </defs>
  <title>default-profile</title>
  <rect class="cls-1" width="40" height="40"/>
  <path class="cls-2" d="M13,14c0,6,3.13,11,7,11s7-5,7-11c0-3.87-3.13-8-7-8S13,10.13,13,14Z"/>
  <ellipse class="cls-2" cx="20" cy="41.5" rx="16.11" ry="14.5"/>
  <path class="cls-2" d="M27,14c0-3.87-2-8-7-8-3.87,0-7,4.13-7,8"/>
  <path class="cls-2" d="M27,14c0-3.87-2-8-7-8"/>
  <path class="cls-2" d="M27,14c0-3.87-2-8-7-8s-7,4.13-7,8"/>
</svg>
