<svg id="Layer_1" data-name="Layer 1" xmlns="http://www.w3.org/2000/svg" viewBox="0 0 50 50">
  <defs>
    <style>
      .cls-1, .cls-4 {
        fill: #f70;
      }

      .cls-2 {
        fill: #fff;
      }

      .cls-3, .cls-5 {
        fill: none;
      }

      .cls-3, .cls-4 {
        stroke: #f70;
      }

      .cls-3, .cls-4, .cls-5 {
        stroke-linecap: round;
        stroke-linejoin: round;
      }

      .cls-5 {
        stroke: #fff;
      }
    </style>
  </defs>
  <title>tessie-icon</title>
  <rect class="cls-1" width="50" height="50"/>
  <g>
    <path class="cls-2" d="M37.3,17.7l1.8,4.9s1.8,8.3-2,11.7c-1.8,1.6-4.2,2.3-5,2.9s-2.7,3.4-3.2,3.8a5.43,5.43,0,0,1-3.6,1.4h-.5A5.06,5.06,0,0,1,21.2,41c-.5-.4-2.5-3.2-3.2-3.8s-3.1-1.2-5-2.9c-3.8-3.4-2-11.7-2-11.7l1.8-4.9a10.59,10.59,0,0,1,4.6-4.3,17.43,17.43,0,0,1,7.5-1.6h.5a15.17,15.17,0,0,1,7.5,1.6A13.85,13.85,0,0,1,37.3,17.7Z"/>
    <path class="cls-3" d="M27.9,30.8H22v-7a1.59,1.59,0,0,0-1.2-1.5c-4.5-1.1-4.9-1-4.9-1"/>
    <path class="cls-3" d="M35,21.3s-1.2-.1-5.7,1A1.83,1.83,0,0,0,28,24v6.8H22.1"/>
    <polygon class="cls-4" points="22 30.8 28 30.8 25 34.1 22 30.8"/>
    <path class="cls-3" d="M16.4,30.8a12.23,12.23,0,0,0,1.5,6.5s3.5,1,7.1-3.2"/>
    <path class="cls-3" d="M33.5,30.8a12.35,12.35,0,0,1-1.4,6.5s-3.5,1-7.1-3.2"/>
    <path class="cls-3" d="M13.6,35.9s-2.4-5.2-.2-10.1"/>
    <path class="cls-3" d="M36.6,35.9s2.4-5.2.2-10.1"/>
    <circle class="cls-4" cx="20.2" cy="24" r="1.4"/>
    <circle class="cls-4" cx="29.8" cy="24" r="1.4"/>
    <path class="cls-5" d="M18.9,13.6s-3.9-2.1-6.4-2.4a17.12,17.12,0,0,0,1.1,7.4"/>
    <path class="cls-5" d="M31.2,13.6s3.9-2.1,6.4-2.4a17.12,17.12,0,0,1-1.1,7.4"/>
  </g>
  <line class="cls-3" x1="25" y1="19.7" x2="25" y2="11.2"/>
  <path class="cls-3" d="M19.6,15.5s5.7-1.5,10.7,0"/>
  <path class="cls-3" d="M21.3,18a12.16,12.16,0,0,1,7.6,0"/>
  <polyline class="cls-1" points="23.8 11.5 25 19.7 26.2 11.5"/>
  <path class="cls-3" d="M23.6,20a6.19,6.19,0,0,1,2.9,0"/>
</svg>
