<svg id="Layer_1" data-name="Layer 1" xmlns="http://www.w3.org/2000/svg" viewBox="0 0 50 50">
  <defs>
    <style>
      .cls-1, .cls-4 {
        fill: #f70;
      }

      .cls-2 {
        fill: #fff;
      }

      .cls-3, .cls-5, .cls-6 {
        fill: none;
      }

      .cls-3, .cls-4 {
        stroke: #f70;
      }

      .cls-3, .cls-4, .cls-6 {
        stroke-linecap: round;
        stroke-linejoin: round;
      }

      .cls-5, .cls-6 {
        stroke: #fff;
      }

      .cls-5 {
        stroke-miterlimit: 10;
      }
    </style>
  </defs>
  <title>tessie-icon</title>
  <rect class="cls-1" width="50" height="50"/>
  <g>
    <path class="cls-2" d="M37.27,17.72l1.79,4.95s1.82,8.3-2,11.74c-1.82,1.64-4.23,2.28-5,2.87s-2.73,3.41-3.23,3.78a5.92,5.92,0,0,1-3.64,1.43,3.17,3.17,0,0,1-.46,0,5.3,5.3,0,0,1-3.64-1.43c-.5-.36-2.5-3.19-3.23-3.78s-3.14-1.23-5-2.87c-3.83-3.44-2-11.74-2-11.74l1.79-4.95a11,11,0,0,1,4.58-4.34,16.08,16.08,0,0,1,7.46-1.55h.46a16.08,16.08,0,0,1,7.46,1.55A11.3,11.3,0,0,1,37.27,17.72Z"/>
    <path class="cls-3" d="M27.92,30.82H22v-7a1.57,1.57,0,0,0-1.19-1.52c-4.52-1.15-4.93-1-4.93-1"/>
    <path class="cls-3" d="M35,21.32s-1.15-.15-5.66,1A1.76,1.76,0,0,0,28,24v6.82H22.08"/>
    <polygon class="cls-4" points="22 30.82 28 30.82 25 34.09 22 30.82"/>
    <path class="cls-3" d="M16.36,30.82a11.56,11.56,0,0,0,1.54,6.46s3.54,1,7.1-3.19"/>
    <path class="cls-3" d="M33.5,30.82a12.22,12.22,0,0,1-1.4,6.46s-3.54,1-7.1-3.19"/>
    <path class="cls-3" d="M13.59,35.9s-2.41-5.22-.2-10.15"/>
    <path class="cls-3" d="M36.59,35.9s2.41-5.22.2-10.15"/>
    <circle class="cls-4" cx="20.2" cy="23.96" r="1.43"/>
    <circle class="cls-4" cx="29.75" cy="23.96" r="1.43"/>
    <line class="cls-5" x1="36.59" y1="18.22" x2="36.59" y2="12.69"/>
    <circle class="cls-5" cx="36.59" cy="10.64" r="1.89"/>
    <path class="cls-6" d="M18.88,13.57S15,11.51,12.46,11.21a17.44,17.44,0,0,0,1.12,7.38"/>
  </g>
</svg>
